<svg width="24" height="24" viewBox="0 0 24 24" fill="none" xmlns="http://www.w3.org/2000/svg">
<path fill-rule="evenodd" clip-rule="evenodd" d="M19.7182 5.9229C19.9053 6.47092 20.0002 7.05343 20.0002 7.63848C20.0002 8.22353 19.9053 8.80604 19.7182 9.35407C19.6291 9.61493 19.4829 9.95484 19.3103 10.2865C21.1126 11.9299 22.0002 14.0822 22.0002 17C22.0002 17.5523 21.5525 18 21.0002 18C20.4479 18 20.0002 17.5523 20.0002 17C20.0002 14.2811 19.1224 12.5937 17.4052 11.3038C17.3974 11.298 17.3896 11.2921 17.3819 11.286C17.2905 11.2141 17.2149 11.1293 17.1557 11.0361C17.0747 10.9085 17.0248 10.7656 17.0073 10.6189C16.9768 10.3641 17.0438 10.0981 17.2142 9.88175C17.2199 9.87449 17.2257 9.86733 17.2315 9.86027C17.4079 9.644 17.6986 9.07917 17.8255 8.70767C17.9398 8.37281 18.0002 8.00905 18.0002 7.63848C18.0002 7.26791 17.9398 6.90415 17.8255 6.56929C17.7111 6.23435 17.547 5.94085 17.3499 5.70185C17.1531 5.46313 16.9299 5.28637 16.6993 5.17054C16.4699 5.05526 16.2327 5 15.9999 5C15.4477 5 14.9999 4.55229 14.9999 4C14.9999 3.44772 15.4477 3 15.9999 3C16.5551 3 17.0987 3.13296 17.5971 3.38338C18.0945 3.63325 18.5327 3.99252 18.8931 4.42952C19.2531 4.86626 19.531 5.37496 19.7182 5.9229ZM10.5003 12.4137C11.9408 12.4137 13.1501 11.2248 13.1501 9.70683C13.1501 8.18884 11.9408 7 10.5003 7C9.05972 7 7.85045 8.18884 7.85045 9.70683C7.85045 11.2248 9.05972 12.4137 10.5003 12.4137ZM15.1501 9.70683C15.1501 11.0344 14.6071 12.2337 13.7336 13.0894C14.0104 13.2093 14.272 13.345 14.5191 13.4951C15.6135 14.1595 16.3653 15.0699 16.8777 16.0081C17.5047 17.156 17.7917 18.1386 17.919 18.857C17.9825 19.2154 18.0059 19.5063 18.0126 19.7173C18.0159 19.8227 18.015 19.9082 18.0128 19.9722C18.0117 20.0042 18.0103 20.0308 18.009 20.0518L18.007 20.0792L18.0061 20.0897L18.0057 20.0942L18.0055 20.0962L18.0054 20.0971C18.0054 20.0976 18.0053 20.0981 17.0098 20.0032L18.0053 20.0981C17.9529 20.6479 17.4648 21.0511 16.915 20.9987C16.3692 20.9467 15.9678 20.4652 16.0133 19.9203L16.014 19.9041C16.0147 19.8822 16.0155 19.8404 16.0136 19.7801C16.0098 19.6594 15.9955 19.4644 15.9497 19.2059C15.8583 18.6905 15.6405 17.9152 15.1225 16.9668C14.7444 16.2746 14.2184 15.6523 13.4811 15.2046C12.7723 14.7742 11.8145 14.4723 10.5001 14.4723C9.18564 14.4723 8.22789 14.7742 7.51908 15.2046C6.78179 15.6523 6.2558 16.2746 5.87768 16.9668C5.3603 17.9141 5.14509 18.688 5.05602 19.2021C5.01135 19.46 4.99808 19.6544 4.99496 19.7746C4.9934 19.8347 4.99439 19.8763 4.99526 19.8979L4.99605 19.9137L4.99591 19.9124C4.99603 19.9138 4.9961 19.9147 4.99614 19.9151L4.99605 19.9137C5.0451 20.4583 4.64703 20.9424 4.10164 20.9981C3.55222 21.0542 3.06134 20.6542 3.00523 20.1048L4.00006 20.0032C3.00523 20.1048 3.00518 20.1044 3.00514 20.1039L3.00504 20.1029L3.00484 20.1009L3.0044 20.0964L3.00344 20.0858L3.00127 20.0583C2.99975 20.0372 2.99817 20.0105 2.99688 19.9784C2.99429 19.9142 2.99289 19.8285 2.99563 19.7228C3.00112 19.5112 3.02317 19.2198 3.08538 18.8607C3.21007 18.141 3.49486 17.1571 4.12244 16.0081C4.63488 15.0699 5.38672 14.1595 6.48104 13.4951C6.72823 13.345 6.98997 13.2092 7.26678 13.0893C6.3934 12.2336 5.85045 11.0344 5.85045 9.70683C5.85045 7.10732 7.93224 5 10.5003 5C13.0683 5 15.1501 7.10732 15.1501 9.70683Z" fill="#70306B"/>
</svg>
