<svg width="24" height="24" viewBox="0 0 24 24" fill="none" xmlns="http://www.w3.org/2000/svg">
<path fill-rule="evenodd" clip-rule="evenodd" d="M3 7C3 6.66002 3.11022 6.1278 3.41153 5.7093C3.67614 5.3418 4.12592 5 5 5H5.01409H5.02823H5.04241H5.05665H5.07094H5.08527H5.09966H5.11409H5.12857H5.1431H5.15768H5.1723H5.18697H5.20169H5.21646H5.23127H5.24613H5.26103H5.27598H5.29098H5.30602H5.3211H5.33623H5.3514H5.36662H5.38189H5.39719H5.41254H5.42793H5.44337H5.45885H5.47437H5.48993H5.50553H5.52118H5.53686H5.55259H5.56836H5.58417H5.60002H5.61591H5.63184H5.6478H5.66381H5.67986H5.69594H5.71207H5.72823H5.74443H5.76067H5.77694H5.79325H5.8096H5.82599H5.84241H5.85887H5.87536H5.89189H5.90845H5.92505H5.94169H5.95836H5.97506H5.9918H6.00857H6.02537H6.04221H6.05908H6.07598H6.09292H6.10989H6.12689H6.14392H6.16098H6.17808H6.1952H6.21236H6.22955H6.24676H6.26401H6.28128H6.29859H6.31592H6.33329H6.35068H6.3681H6.38555H6.40302H6.42053H6.43806H6.45561H6.4732H6.49081H6.50845H6.52611H6.5438H6.56151H6.57925H6.59702H6.61481H6.63262H6.65046H6.66832H6.68621H6.70411H6.72205H6.74H6.75798H6.77598H6.794H6.81204H6.83011H6.8482H6.8663H6.88443H6.90258H6.92075H6.93894H6.95715H6.97538H6.99362H7.01189H7.03018H7.04848H7.0668H7.08514H7.1035H7.12187H7.14027H7.15868H7.1771H7.19554H7.214H7.23248H7.25097H7.26947H7.28799H7.30653H7.32508H7.34364H7.36222H7.38081H7.39942H7.41804H7.43667H7.45531H7.47397H7.49264H7.51132H7.53001H7.54872H7.56743H7.58616H7.6049H7.62364H7.6424H7.66117H7.67995H7.69873H7.71753H7.73633H7.75515H7.77397H7.7928H7.81164H7.83048H7.84933H7.86819H7.88706H7.90593H7.92481H7.9437H7.96259H7.98148H8.00039H8.01929H8.0382H8.05712H8.07604H8.09496H8.11389H8.13282H8.15176H8.17069H8.18963H8.20858H8.22752H8.24647H8.26542H8.28436H8.30331H8.32227H8.34122H8.36017H8.37912H8.39807H8.41702H8.43598H8.45492H8.47387H8.49282H8.51177H8.53071H8.54965H8.56859H8.58752H8.60646H8.62538H8.64431H8.66323H8.68215H8.70106H8.71997H8.73888H8.75777H8.77667H8.79555H8.81444H8.83331H8.85218H8.87104H8.8899H8.90875H8.92759H8.94642H8.96525H8.98406H9.00287H9.02167H9.04046H9.05924H9.07801H9.09678H9.11553H9.13427H9.153H9.17172H9.19043H9.20913H9.22781H9.24649H9.26515H9.2838H9.30244H9.32106H9.33967H9.35827H9.37685H9.39542H9.41398H9.43252H9.45105H9.46956H9.48805H9.50653H9.525H9.54345H9.56188H9.5803H9.5987H9.61708H9.63544H9.65379H9.67212H9.69043H9.70873H9.727H9.74526H9.76349H9.78171H9.79991H9.81808H9.83624H9.85438H9.8725H9.89059H9.90866H9.92672H9.94475H9.96276H9.98074H9.99871H10.0166H10.0346H10.0525H10.0703H10.0882H10.106H10.1238H10.1416H10.1593H10.1771H10.1948H10.2124H10.2301H10.2477H10.2653H10.2829H10.3004H10.3179H10.3354H10.3529H10.3703H10.3877H10.4051H10.4224H10.4397H10.457H10.4743H10.4915H10.5087H10.5259H10.543H10.5601H10.5772H10.5942H10.6113H10.6282H10.6452H10.6621H10.679H10.6958H10.7127H10.7294H10.7462H10.7629H10.7796H10.7962H10.8129H10.8294H10.846H10.8625H10.879H10.8954H10.9118H10.9282H10.9445H10.9608H10.977H10.9933H11.0094H11.0256H11.0417H11.0577H11.0738H11.0897H11.1057H11.1216H11.1375H11.1533H11.1691H11.1848H11.2005H11.2162H11.2318H11.2474H11.2629H11.2784H11.2939H11.3093H11.3246H11.34H11.3552H11.3705H11.3857H11.4008H11.4159H11.431H11.446H11.461H11.4759H11.4908H11.5056H11.5204H11.5351H11.5498H11.5645H11.5791H11.5936H11.6081H11.6226H11.637H11.6513H11.6656H11.6799H11.6941H11.7082H11.7224H11.7364H11.7504H11.7644H11.7783H11.7921H11.8059H11.8197H11.8334H11.847H11.8606H11.8742H11.8877H11.9011H11.9145H11.9278H11.9411H11.9543H11.9675H11.9806H11.9936H12.0066H12.0196H12.0325H12.0453H12.0581H12.0708H12.0834H12.096H12.1086H12.1211H12.1335H12.1459H12.1582H12.1704H12.1826H12.1948H12.2069H12.2189H12.2308H12.2427H12.2546H12.2663H12.2781H12.2897H12.3013H12.3128H12.3243H12.3357H12.347H12.3583H12.3695H12.3807H12.3918H12.4028H12.4138H12.4246H12.4355H12.4462H12.4569H12.4676H12.4781H12.4886H12.4991H12.5095H12.5198H12.53H12.5402H12.5503H12.5603H12.5703H12.5802H12.59H12.5997H12.6094H12.6191H12.6286H12.6381H12.6475H12.6568H12.6661H12.6753H12.6844H12.6935H12.7025H12.7114H12.7202H12.729H12.7377H12.7463H12.7549H12.7633H12.7717H12.7801H12.7883H12.7965H12.8046H12.8126H12.8206H12.8284H12.8362H12.844H12.8516H12.8592H12.8667H12.8741H12.8814H12.8887H12.8959H12.903H12.91H12.917H12.9238H12.9306H12.9373H12.944H12.9505H12.957H12.9634H12.9697H12.9759H12.9821H12.9881H12.9941H13C13.34 5 13.8722 5.11022 14.2907 5.41153C14.6582 5.67614 15 6.12592 15 7V7.01404V7.02803V7.04197V7.05586V7.0697V7.0835V7.09725V7.11095V7.1246V7.1382V7.15176V7.16526V7.17872V7.19213V7.2055V7.21882V7.23209V7.24531V7.25849V7.27162V7.2847V7.29773V7.31072V7.32366V7.33656V7.34941V7.36221V7.37497V7.38768V7.40034V7.41296V7.42554V7.43806V7.45055V7.46298V7.47537V7.48772V7.50002V7.51228V7.52449V7.53665V7.54877V7.56085V7.57288V7.58487V7.59681V7.60871V7.62056V7.63237V7.64414V7.65586V7.66754V7.67917V7.69076V7.70231V7.71382V7.72528V7.73669V7.74807V7.7594V7.77069V7.78193V7.79314V7.8043V7.81541V7.82649V7.83752V7.84851V7.85946V7.87037V7.88123V7.89206V7.90284V7.91358V7.92427V7.93493V7.94554V7.95612V7.96665V7.97714V7.98759V7.998V8.00837V8.0187V8.02899V8.03923V8.04944V8.05961V8.06973V8.07982V8.08987V8.09987V8.10984V8.11977V8.12965V8.1395V8.14931V8.15908V8.16881V8.1785V8.18815V8.19777V8.20734V8.21688V8.22637V8.23583V8.24525V8.25463V8.26398V8.27328V8.28255V8.29178V8.30097V8.31012V8.31924V8.32832V8.33736V8.34636V8.35533V8.36426V8.37315V8.38201V8.39083V8.39961V8.40836V8.41707V8.42574V8.43437V8.44298V8.45154V8.46007V8.46856V8.47702V8.48544V8.49382V8.50217V8.51048V8.51876V8.527V8.53521V8.54339V8.55152V8.55963V8.56769V8.57573V8.58373V8.59169V8.59962V8.60752V8.61538V8.62321V8.631V8.63876V8.64649V8.65418V8.66184V8.66946V8.67705V8.68461V8.69214V8.69963V8.70709V8.71452V8.72191V8.72927V8.7366V8.7439V8.75116V8.75839V8.76559V8.77276V8.77989V8.78699V8.79406V8.8011V8.80811V8.81509V8.82203V8.82895V8.83583V8.84268V8.8495V8.85629V8.86305V8.86977V8.87647V8.88314V8.88977V8.89638V8.90296V8.9095V8.91602V8.9225V8.92896V8.93538V8.94178V8.94814V8.95448V8.96079V8.96707V8.97332V8.97954V8.98573V8.99189V8.99802V9.00413V9.01021V9.01625V9.02227V9.02826V9.03423V9.04016V9.04607V9.05195V9.0578V9.06362V9.06942V9.07519V9.08093V9.08664V9.09233V9.09799V9.10362V9.10923V9.11481V9.12036V9.12589V9.13138V9.13686V9.1423V9.14772V9.15312V9.15849V9.16383V9.16915V9.17444V9.1797V9.18494V9.19015V9.19534V9.20051V9.20565V9.21076V9.21585V9.22091V9.22595V9.23096V9.23595V9.24092V9.24586V9.25078V9.25567V9.26054V9.26538V9.2702V9.275V9.27977V9.28452V9.28925V9.29395V9.29863V9.30329V9.30792V9.31253V9.31712V9.32169V9.32623V9.33075V9.33524V9.33972V9.34417V9.3486V9.35301V9.3574V9.36176V9.3661V9.37043V9.37472V9.379V9.38326V9.38749V9.39171V9.3959V9.40007V9.40422V9.40835V9.41246V9.41655V9.42062V9.42467V9.4287V9.4327V9.43669V9.44066V9.44461V9.44853V9.45244V9.45633V9.4602V9.46405V9.46788V9.47169V9.47548V9.47925V9.48301V9.48674V9.49046V9.49416V9.49784V9.5015V9.50514V9.50876V9.51237V9.51596V9.51953V9.52308V9.52661V9.53013V9.53363V9.53711V9.54057V9.54402V9.54745V9.55086V9.55426V9.55764V9.561V9.56435V9.56767V9.57099V9.57428V9.57756V9.58083V9.58407V9.58731V9.59052V9.59372V9.59691V9.60007V9.60323V9.60636V9.60949V9.61259V9.61569V9.61876V9.62183V9.62487V9.62791V9.63092V9.63393V9.63692V9.63989V9.64285V9.6458V9.64873V9.65165V9.65456V9.65745V9.66033V9.66319V9.66604V9.66888V9.6717V9.67451V9.67731V9.68009V9.68287V9.68563V9.68837V9.69111V9.69383V9.69654V9.69924V9.70192V9.70459V9.70725V9.7099V9.71254V9.71517V9.71778V9.72038V9.72298V9.72556V9.72813V9.73068V9.73323V9.73577V9.73829V9.74081V9.74331V9.7458V9.74829V9.75076V9.75322V9.75568V9.75812V9.76055V9.76297V9.76539V9.76779V9.77019V9.77257V9.77495V9.77731V9.77967V9.78202V9.78436V9.78669V9.78901V9.79132V9.79363V9.79593V9.79821V9.80049V9.80277V9.80503V9.80729V9.80953V9.81177V9.81401V9.81623V9.81845V9.82066V9.82286V9.82506V9.82725V9.82943V9.83161V9.83377V9.83594V9.83809V9.84024V9.84238V9.84452V9.84665V9.84877V9.85089V9.853V9.85511V9.85721V9.85931V9.8614V9.86348V9.86556V9.86764V9.8697V9.87177V9.87383V9.87588V9.87793V9.87998V9.88202V9.88406V9.88609V9.88811V9.89014V9.89216V9.89418V9.89619V9.8982V9.9002V9.9022V9.9042V9.9062V9.90819V9.91018V9.91216V9.91414V9.91612V9.9181V9.92007V9.92205V9.92402V9.92598V9.92795V9.92991V9.93187V9.93383V9.93579V9.93774V9.9397V9.94165V9.9436V9.94555V9.9475V9.94945V9.95139V9.95334V9.95528V9.95723V9.95917V9.96111V9.96305V9.965V9.96694V9.96888V9.97082V9.97276V9.9747V9.97664V9.97859V9.98053V9.98247V9.98442V9.98636V9.98831V9.99025V9.9922V9.99415V9.9961V9.99805V10C15 10.34 14.8898 10.8722 14.5885 11.2907C14.3239 11.6582 13.8741 12 13 12H12.986H12.972H12.9582H12.9444H12.9308H12.9172H12.9037H12.8903H12.8769H12.8637H12.8505H12.8374H12.8244H12.8115H12.7987H12.7859H12.7732H12.7607H12.7481H12.7357H12.7234H12.7111H12.6989H12.6868H12.6748H12.6628H12.651H12.6392H12.6275H12.6158H12.6043H12.5928H12.5814H12.57H12.5588H12.5476H12.5365H12.5255H12.5145H12.5036H12.4928H12.4821H12.4715H12.4609H12.4504H12.4399H12.4296H12.4193H12.409H12.3989H12.3888H12.3788H12.3689H12.359H12.3492H12.3395H12.3298H12.3202H12.3107H12.3012H12.2918H12.2825H12.2733H12.2641H12.2549H12.2459H12.2369H12.228H12.2191H12.2103H12.2016H12.1929H12.1843H12.1758H12.1673H12.1589H12.1505H12.1422H12.134H12.1259H12.1178H12.1097H12.1017H12.0938H12.0859H12.0781H12.0704H12.0627H12.0551H12.0475H12.04H12.0326H12.0252H12.0178H12.0105H12.0033H11.9962H11.989H11.982H11.975H11.968H11.9611H11.9543H11.9475H11.9408H11.9341H11.9275H11.9209H11.9144H11.9079H11.9015H11.8951H11.8888H11.8826H11.8763H11.8702H11.8641H11.858H11.852H11.846H11.8401H11.8342H11.8284H11.8226H11.8169H11.8112H11.8056H11.8H11.7945H11.789H11.7835H11.7781H11.7727H11.7674H11.7621H11.7569H11.7517H11.7466H11.7415H11.7364H11.7314H11.7264H11.7215H11.7166H11.7117H11.7069H11.7021H11.6974H11.6927H11.688H11.6834H11.6788H11.6743H11.6698H11.6653H11.6609H11.6565H11.6522H11.6478H11.6436H11.6393H11.6351H11.6309H11.6268H11.6227H11.6186H11.6145H11.6105H11.6066H11.6026H11.5987H11.5948H11.591H11.5872H11.5834H11.5796H11.5759H11.5722H11.5685H11.5649H11.5613H11.5577H11.5542H11.5506H11.5471H11.5437H11.5402H11.5368H11.5334H11.5301H11.5267H11.5234H11.5202H11.5169H11.5137H11.5105H11.5073H11.5041H11.501H11.4978H11.4948H11.4917H11.4886H11.4856H11.4826H11.4796H11.4767H11.4737H11.4708H11.4679H11.465H11.4621H11.4593H11.4564H11.4536H11.4508H11.4481H11.4453H11.4426H11.4398H11.4371H11.4344H11.4318H11.4291H11.4265H11.4238H11.4212H11.4186H11.416H11.4134H11.4109H11.4083H11.4058H11.4032H11.4007H11.3982H11.3957H11.3932H11.3908H11.3883H11.3859H11.3834H11.381H11.3785H11.3761H11.3737H11.3713H11.3689H11.3665H11.3642H11.3618H11.3594H11.3571H11.3547H11.3523H11.35H11.3477H11.3453H11.343H11.3407H11.3383H11.336H11.3337H11.3314H11.3291H11.3267H11.3244H11.3221H11.3198H11.3175H11.3152H11.3129H11.3106H11.3082H11.3059H11.3036H11.3013H11.299H11.2967H11.2943H11.292H11.2897H11.2873H11.285H11.2826H11.2803H11.2779H11.2756H11.2732H11.2709H11.2685H11.2661H11.2637H11.2613H11.2589H11.2565H11.2541H11.2516H11.2492H11.2467H11.2443H11.2418H11.2393H11.2368H11.2343H11.2318H11.2293H11.2268H11.2242H11.2217H11.2191H11.2165H11.2139H11.2113H11.2087H11.206H11.2034H11.2007H11.198H11.1953H11.1926H11.1899H11.1871H11.1843H11.1816H11.1788H11.1759H11.1731H11.1702H11.1674H11.1645H11.1615H11.1586H11.1557H11.1527H11.1497H11.1467H11.1436H11.1406H11.1375H11.1344H11.1312H11.1281H11.1249H11.1217H11.1185H11.1152H11.112H11.1087H11.1054H11.102H11.0986H11.0952H11.0918H11.0884H11.0849H11.0814H11.0778H11.0743H11.0707H11.067H11.0634H11.0597H11.056H11.0523H11.0485H11.0447H11.0408H11.037H11.0331H11.0292H11.0252H11.0212H11.0172H11.0131H11.009H11.0049H11.0007H10.9965H10.9923H10.988H10.9837H10.9794H10.975H10.9706H10.9661H10.9616H10.9571H10.9526H10.948H10.9433H10.9386H10.9339H10.9292H10.9244H10.9195H10.9147H10.9097H10.9048H10.8998H10.8947H10.8897H10.8845H10.8794H10.8741H10.8689H10.8636H10.8582H10.8529H10.8474H10.8419H10.8364H10.8309H10.8252H10.8196H10.8139H10.8081H10.8023H10.7965H10.7906H10.7846H10.7786H10.7726H10.7665H10.7603H10.7542H10.7479H10.7416H10.7353H10.7289H10.7224H10.7159H10.7094H10.7028H10.6961H10.6894H10.6827H10.6759H10.669H10.6621H10.6551H10.6481H10.641H10.6338H10.6266H10.6194H10.6121H10.6047H10.5973H10.5898H10.5822H10.5746H10.567H10.5593H10.5515H10.5436H10.5358H10.5278H10.5198H10.5117H10.5036H10.4954H10.4871H10.4788H10.4704H10.462H10.4534H10.4449H10.4362H10.4275H10.4188H10.4099H10.401H10.3921H10.383H10.374H10.3648H10.3556H10.3463H10.3369H10.3275H10.318H10.3084H10.2988H10.2891H10.2793H10.2695H10.2596H10.2496H10.2396H10.2294H10.2192H10.209H10.1986H10.1882H10.1778H10.1672H10.1566H10.1459H10.1351H10.1243H10.1133H10.1024H10.0913H10.0801H10.0689H10.0576H10.0463H10.0348H10.0233H10.0117H10C9.81876 12 9.64092 12.0493 9.4855 12.1425L6 14.2338V13C6 12.4477 5.55228 12 5 12C4.66002 12 4.1278 11.8898 3.7093 11.5885C3.3418 11.3239 3 10.8741 3 10V7ZM5 3C3.47408 3 2.42386 3.6582 1.78847 4.5407C1.18978 5.3722 1 6.33998 1 7V10C1 11.5259 1.6582 12.5761 2.5407 13.2115C3.01033 13.5497 3.52343 13.7574 4 13.8741V16C4 16.3603 4.19379 16.6927 4.5073 16.8702C4.82081 17.0477 5.20556 17.0429 5.5145 16.8575L10.277 14H10.2793H10.2891H10.2988H10.3084H10.318H10.3275H10.3369H10.3463H10.3556H10.3648H10.374H10.383H10.3921H10.401H10.4099H10.4188H10.4275H10.4362H10.4449H10.4534H10.462H10.4704H10.4788H10.4871H10.4954H10.5036H10.5117H10.5198H10.5278H10.5358H10.5436H10.5515H10.5593H10.567H10.5746H10.5822H10.5898H10.5973H10.6047H10.6121H10.6194H10.6266H10.6338H10.641H10.6481H10.6551H10.6621H10.669H10.6759H10.6827H10.6894H10.6961H10.7028H10.7094H10.7159H10.7224H10.7289H10.7353H10.7416H10.7479H10.7542H10.7603H10.7665H10.7726H10.7786H10.7846H10.7906H10.7965H10.8023H10.8081H10.8139H10.8196H10.8252H10.8309H10.8364H10.8419H10.8474H10.8529H10.8582H10.8636H10.8689H10.8741H10.8794H10.8845H10.8897H10.8947H10.8998H10.9048H10.9097H10.9147H10.9195H10.9244H10.9292H10.9339H10.9386H10.9433H10.948H10.9526H10.9571H10.9616H10.9661H10.9706H10.975H10.9794H10.9837H10.988H10.9923H10.9965H11.0007H11.0049H11.009H11.0131H11.0172H11.0212H11.0252H11.0292H11.0331H11.037H11.0408H11.0447H11.0485H11.0523H11.056H11.0597H11.0634H11.067H11.0707H11.0743H11.0778H11.0814H11.0849H11.0884H11.0918H11.0952H11.0986H11.102H11.1054H11.1087H11.112H11.1152H11.1185H11.1217H11.1249H11.1281H11.1312H11.1344H11.1375H11.1406H11.1436H11.1467H11.1497H11.1527H11.1557H11.1586H11.1615H11.1645H11.1674H11.1702H11.1731H11.1759H11.1788H11.1816H11.1843H11.1871H11.1899H11.1926H11.1953H11.198H11.2007H11.2034H11.206H11.2087H11.2113H11.2139H11.2165H11.2191H11.2217H11.2242H11.2268H11.2293H11.2318H11.2343H11.2368H11.2393H11.2418H11.2443H11.2467H11.2492H11.2516H11.2541H11.2565H11.2589H11.2613H11.2637H11.2661H11.2685H11.2709H11.2732H11.2756H11.2779H11.2803H11.2826H11.285H11.2873H11.2897H11.292H11.2943H11.2967H11.299H11.3013H11.3036H11.3059H11.3082H11.3106H11.3129H11.3152H11.3175H11.3198H11.3221H11.3244H11.3267H11.3291H11.3314H11.3337H11.336H11.3383H11.3407H11.343H11.3453H11.3477H11.35H11.3523H11.3547H11.3571H11.3594H11.3618H11.3642H11.3665H11.3689H11.3713H11.3737H11.3761H11.3785H11.381H11.3834H11.3859H11.3883H11.3908H11.3932H11.3957H11.3982H11.4007H11.4032H11.4058H11.4083H11.4109H11.4134H11.416H11.4186H11.4212H11.4238H11.4265H11.4291H11.4318H11.4344H11.4371H11.4398H11.4426H11.4453H11.4481H11.4508H11.4536H11.4564H11.4593H11.4621H11.465H11.4679H11.4708H11.4737H11.4767H11.4796H11.4826H11.4856H11.4886H11.4917H11.4948H11.4978H11.501H11.5041H11.5073H11.5105H11.5137H11.5169H11.5202H11.5234H11.5267H11.5301H11.5334H11.5368H11.5402H11.5437H11.5471H11.5506H11.5542H11.5577H11.5613H11.5649H11.5685H11.5722H11.5759H11.5796H11.5834H11.5872H11.591H11.5948H11.5987H11.6026H11.6066H11.6105H11.6145H11.6186H11.6227H11.6268H11.6309H11.6351H11.6393H11.6436H11.6478H11.6522H11.6565H11.6609H11.6653H11.6698H11.6743H11.6788H11.6834H11.688H11.6927H11.6974H11.7021H11.7069H11.7117H11.7166H11.7215H11.7264H11.7314H11.7364H11.7415H11.7466H11.7517H11.7569H11.7621H11.7674H11.7727H11.7781H11.7835H11.789H11.7945H11.8H11.8056H11.8112H11.8169H11.8226H11.8284H11.8342H11.8401H11.846H11.852H11.858H11.8641H11.8702H11.8763H11.8826H11.8888H11.8951H11.9015H11.9079H11.9144H11.9209H11.9275H11.9341H11.9408H11.9475H11.9543H11.9611H11.968H11.975H11.982H11.989H11.9962H12.0033H12.0105H12.0178H12.0252H12.0326H12.04H12.0475H12.0551H12.0627H12.0704H12.0781H12.0859H12.0938H12.1017H12.1097H12.1178H12.1259H12.134H12.1422H12.1505H12.1589H12.1673H12.1758H12.1843H12.1929H12.2016H12.2103H12.2191H12.228H12.2369H12.2459H12.2549H12.2641H12.2733H12.2825H12.2918H12.3012H12.3107H12.3202H12.3298H12.3395H12.3492H12.359H12.3689H12.3788H12.3888H12.3989H12.409H12.4193H12.4296H12.4399H12.4504H12.4609H12.4715H12.4821H12.4928H12.5036H12.5145H12.5255H12.5365H12.5476H12.5588H12.57H12.5814H12.5928H12.6043H12.6158H12.6275H12.6392H12.651H12.6628H12.6748H12.6868H12.6989H12.7111H12.7234H12.7357H12.7481H12.7607H12.7732H12.7859H12.7987H12.8115H12.8244H12.8374H12.8505H12.8637H12.8769H12.8903H12.9037H12.9172H12.9308H12.9444H12.9582H12.972H12.986H13C14.5259 14 15.5761 13.3418 16.2115 12.4593C16.8102 11.6278 17 10.66 17 10V9.99805V9.9961V9.99415V9.9922V9.99025V9.98831V9.98636V9.98442V9.98247V9.98053V9.97859V9.97664V9.9747V9.97276V9.97082V9.96888V9.96694V9.965V9.96305V9.96111V9.95917V9.95723V9.95528V9.95334V9.95139V9.94945V9.9475V9.94555V9.9436V9.94165V9.9397V9.93774V9.93579V9.93383V9.93187V9.92991V9.92795V9.92598V9.92402V9.92205V9.92007V9.9181V9.91612V9.91414V9.91216V9.91018V9.90819V9.9062V9.9042V9.9022V9.9002V9.8982V9.89619V9.89418V9.89216V9.89014V9.88811V9.88609V9.88406V9.88202V9.87998V9.87793V9.87588V9.87383V9.87177V9.8697V9.86764V9.86556V9.86348V9.8614V9.85931V9.85721V9.85511V9.853V9.85089V9.84877V9.84665V9.84452V9.84238V9.84024V9.83809V9.83594V9.83377V9.83161V9.82943V9.82725V9.82506V9.82286V9.82066V9.81845V9.81623V9.81401V9.81177V9.80953V9.80729V9.80503V9.80277V9.80049V9.79821V9.79593V9.79363V9.79132V9.78901V9.78669V9.78436V9.78202V9.77967V9.77731V9.77495V9.77257V9.77019V9.76779V9.76539V9.76297V9.76055V9.75812V9.75568V9.75322V9.75076V9.74829V9.7458V9.74331V9.74081V9.73829V9.73577V9.73323V9.73068V9.72813V9.72556V9.72298V9.72038V9.71778V9.71517V9.71254V9.7099V9.70725V9.70459V9.70192V9.69924V9.69654V9.69383V9.69111V9.68837V9.68563V9.68287V9.68009V9.67731V9.67451V9.6717V9.66888V9.66604V9.66319V9.66033V9.65745V9.65456V9.65165V9.64873V9.6458V9.64285V9.63989V9.63692V9.63393V9.63092V9.62791V9.62487V9.62183V9.61876V9.61569V9.61259V9.60949V9.60636V9.60323V9.60007V9.59691V9.59372V9.59052V9.58731V9.58407V9.58083V9.57756V9.57428V9.57099V9.56767V9.56435V9.561V9.55764V9.55426V9.55086V9.54745V9.54402V9.54057V9.53711V9.53363V9.53013V9.52661V9.52308V9.51953V9.51596V9.51237V9.50876V9.50514V9.5015V9.49784V9.49416V9.49046V9.48674V9.48301V9.47925V9.47548V9.47169V9.46788V9.46405V9.4602V9.45633V9.45244V9.44853V9.44461V9.44066V9.43669V9.4327V9.4287V9.42467V9.42062V9.41655V9.41246V9.40835V9.40422V9.40007V9.3959V9.39171V9.38749V9.38326V9.379V9.37472V9.37043V9.3661V9.36176V9.3574V9.35301V9.3486V9.34417V9.33972V9.33524V9.33075V9.32623V9.32169V9.31712V9.31253V9.30792V9.30329V9.29863V9.29395V9.28925V9.28452V9.27977V9.275V9.2702V9.26538V9.26054V9.25567V9.25078V9.24586V9.24092V9.23595V9.23096V9.22595V9.22091V9.21585V9.21076V9.20565V9.20051V9.19534V9.19015V9.18494V9.1797V9.17444V9.16915V9.16383V9.15849V9.15312V9.14772V9.1423V9.13686V9.13138V9.12589V9.12036V9.11481V9.10923V9.10362V9.09799V9.09233V9.08664V9.08093V9.07519V9.06942V9.06362V9.0578V9.05195V9.04607V9.04016V9.03423V9.02826V9.02227V9.01625V9.01021V9.00413V8.99802V8.99189V8.98573V8.97954V8.97332V8.96707V8.96079V8.95448V8.94814V8.94178V8.93538V8.92896V8.9225V8.91602V8.9095V8.90296V8.89638V8.88977V8.88314V8.87647V8.86977V8.86305V8.85629V8.8495V8.84268V8.83583V8.82895V8.82203V8.81509V8.80811V8.8011V8.79406V8.78699V8.77989V8.77276V8.76559V8.75839V8.75116V8.7439V8.7366V8.72927V8.72191V8.71452V8.70709V8.69963V8.69214V8.68461V8.67705V8.66946V8.66184V8.65418V8.64649V8.63876V8.631V8.62321V8.61538V8.60752V8.59962V8.59169V8.58373V8.57573V8.56769V8.55963V8.55152V8.54339V8.53521V8.527V8.51876V8.51048V8.50217V8.49382V8.48544V8.47702V8.46856V8.46007V8.45154V8.44298V8.43437V8.42574V8.41707V8.40836V8.39961V8.39083V8.38201V8.37315V8.36426V8.35533V8.34636V8.33736V8.32832V8.31924V8.31012V8.30097V8.29178V8.28255V8.27328V8.26398V8.25463V8.24525V8.23583V8.22637V8.21688V8.20734V8.19777V8.18815V8.1785V8.16881V8.15908V8.14931V8.1395V8.12965V8.11977V8.10984V8.09987V8.08987V8.07982V8.06973V8.05961V8.04944V8.03923V8.02899V8.0187V8.00837V7.998V7.98759V7.97714V7.96665V7.95612V7.94554V7.93493V7.92427V7.91358V7.90284V7.89206V7.88123V7.87037V7.85946V7.84851V7.83752V7.82649V7.81541V7.8043V7.79314V7.78193V7.77069V7.7594V7.74807V7.73669V7.72528V7.71382V7.70231V7.69076V7.67917V7.66754V7.65586V7.64414V7.63237V7.62056V7.60871V7.59681V7.58487V7.57288V7.56085V7.54877V7.53665V7.52449V7.51228V7.50002V7.48772V7.47537V7.46298V7.45055V7.43806V7.42554V7.41296V7.40034V7.38768V7.37497V7.36221V7.34941V7.33656V7.32366V7.31072V7.29773V7.2847V7.27162V7.25849V7.24531V7.23209V7.21882V7.2055V7.19213V7.17872V7.16526V7.15176V7.1382V7.1246V7.11095V7.09725V7.0835V7.0697V7.05586V7.04197V7.02803V7.01404V7C17 5.47408 16.3418 4.42386 15.4593 3.78847C14.6278 3.18978 13.66 3 13 3H12.9941H12.9881H12.9821H12.9759H12.9697H12.9634H12.957H12.9505H12.944H12.9373H12.9306H12.9238H12.917H12.91H12.903H12.8959H12.8887H12.8814H12.8741H12.8667H12.8592H12.8516H12.844H12.8362H12.8284H12.8206H12.8126H12.8046H12.7965H12.7883H12.7801H12.7717H12.7633H12.7549H12.7463H12.7377H12.729H12.7202H12.7114H12.7025H12.6935H12.6844H12.6753H12.6661H12.6568H12.6475H12.6381H12.6286H12.6191H12.6094H12.5997H12.59H12.5802H12.5703H12.5603H12.5503H12.5402H12.53H12.5198H12.5095H12.4991H12.4886H12.4781H12.4676H12.4569H12.4462H12.4355H12.4246H12.4138H12.4028H12.3918H12.3807H12.3695H12.3583H12.347H12.3357H12.3243H12.3128H12.3013H12.2897H12.2781H12.2663H12.2546H12.2427H12.2308H12.2189H12.2069H12.1948H12.1826H12.1704H12.1582H12.1459H12.1335H12.1211H12.1086H12.096H12.0834H12.0708H12.0581H12.0453H12.0325H12.0196H12.0066H11.9936H11.9806H11.9675H11.9543H11.9411H11.9278H11.9145H11.9011H11.8877H11.8742H11.8606H11.847H11.8334H11.8197H11.8059H11.7921H11.7783H11.7644H11.7504H11.7364H11.7224H11.7082H11.6941H11.6799H11.6656H11.6513H11.637H11.6226H11.6081H11.5936H11.5791H11.5645H11.5498H11.5351H11.5204H11.5056H11.4908H11.4759H11.461H11.446H11.431H11.4159H11.4008H11.3857H11.3705H11.3552H11.34H11.3246H11.3093H11.2939H11.2784H11.2629H11.2474H11.2318H11.2162H11.2005H11.1848H11.1691H11.1533H11.1375H11.1216H11.1057H11.0897H11.0738H11.0577H11.0417H11.0256H11.0094H10.9933H10.977H10.9608H10.9445H10.9282H10.9118H10.8954H10.879H10.8625H10.846H10.8294H10.8129H10.7962H10.7796H10.7629H10.7462H10.7294H10.7127H10.6958H10.679H10.6621H10.6452H10.6282H10.6113H10.5942H10.5772H10.5601H10.543H10.5259H10.5087H10.4915H10.4743H10.457H10.4397H10.4224H10.4051H10.3877H10.3703H10.3529H10.3354H10.3179H10.3004H10.2829H10.2653H10.2477H10.2301H10.2124H10.1948H10.1771H10.1593H10.1416H10.1238H10.106H10.0882H10.0703H10.0525H10.0346H10.0166H9.99871H9.98074H9.96276H9.94475H9.92672H9.90866H9.89059H9.8725H9.85438H9.83624H9.81808H9.79991H9.78171H9.76349H9.74526H9.727H9.70873H9.69043H9.67212H9.65379H9.63544H9.61708H9.5987H9.5803H9.56188H9.54345H9.525H9.50653H9.48805H9.46956H9.45105H9.43252H9.41398H9.39542H9.37685H9.35827H9.33967H9.32106H9.30244H9.2838H9.26515H9.24649H9.22781H9.20913H9.19043H9.17172H9.153H9.13427H9.11553H9.09678H9.07801H9.05924H9.04046H9.02167H9.00287H8.98406H8.96525H8.94642H8.92759H8.90875H8.8899H8.87104H8.85218H8.83331H8.81444H8.79555H8.77667H8.75777H8.73888H8.71997H8.70106H8.68215H8.66323H8.64431H8.62538H8.60646H8.58752H8.56859H8.54965H8.53071H8.51177H8.49282H8.47387H8.45492H8.43598H8.41702H8.39807H8.37912H8.36017H8.34122H8.32227H8.30331H8.28436H8.26542H8.24647H8.22752H8.20858H8.18963H8.17069H8.15176H8.13282H8.11389H8.09496H8.07604H8.05712H8.0382H8.01929H8.00039H7.98148H7.96259H7.9437H7.92481H7.90593H7.88706H7.86819H7.84933H7.83048H7.81164H7.7928H7.77397H7.75515H7.73633H7.71753H7.69873H7.67995H7.66117H7.6424H7.62364H7.6049H7.58616H7.56743H7.54872H7.53001H7.51132H7.49264H7.47397H7.45531H7.43667H7.41804H7.39942H7.38081H7.36222H7.34364H7.32508H7.30653H7.28799H7.26947H7.25097H7.23248H7.214H7.19554H7.1771H7.15868H7.14027H7.12187H7.1035H7.08514H7.0668H7.04848H7.03018H7.01189H6.99362H6.97538H6.95715H6.93894H6.92075H6.90258H6.88443H6.8663H6.8482H6.83011H6.81204H6.794H6.77598H6.75798H6.74H6.72205H6.70411H6.68621H6.66832H6.65046H6.63262H6.61481H6.59702H6.57925H6.56151H6.5438H6.52611H6.50845H6.49081H6.4732H6.45561H6.43806H6.42053H6.40302H6.38555H6.3681H6.35068H6.33329H6.31592H6.29859H6.28128H6.26401H6.24676H6.22955H6.21236H6.1952H6.17808H6.16098H6.14392H6.12689H6.10989H6.09292H6.07598H6.05908H6.04221H6.02537H6.00857H5.9918H5.97506H5.95836H5.94169H5.92505H5.90845H5.89189H5.87536H5.85887H5.84241H5.82599H5.8096H5.79325H5.77694H5.76067H5.74443H5.72823H5.71207H5.69594H5.67986H5.66381H5.6478H5.63184H5.61591H5.60002H5.58417H5.56836H5.55259H5.53686H5.52118H5.50553H5.48993H5.47437H5.45885H5.44337H5.42793H5.41254H5.39719H5.38189H5.36662H5.3514H5.33623H5.3211H5.30602H5.29098H5.27598H5.26103H5.24613H5.23127H5.21646H5.20169H5.18697H5.1723H5.15768H5.1431H5.12857H5.11409H5.09966H5.08527H5.07094H5.05665H5.04241H5.02823H5.01409H5ZM19.7158 9.09447C19.1863 8.93751 18.8843 8.38101 19.0412 7.8515C19.1982 7.32199 19.7547 7.01999 20.2842 7.17695C22.4826 7.82862 23 9.96607 23 11V14C23 15.5259 22.3418 16.5761 21.4593 17.2115C20.9897 17.5497 20.4766 17.7574 20 17.8741V20C20 20.3603 19.8062 20.6927 19.4927 20.8702C19.1792 21.0477 18.7944 21.0429 18.4855 20.8575L13.723 18H13.7207H13.7109H13.7012H13.6916H13.682H13.6725H13.6631H13.6537H13.6444H13.6352H13.626H13.617H13.6079H13.599H13.5901H13.5812H13.5725H13.5638H13.5551H13.5466H13.538H13.5296H13.5212H13.5129H13.5046H13.4964H13.4883H13.4802H13.4722H13.4642H13.4564H13.4485H13.4407H13.433H13.4254H13.4178H13.4102H13.4027H13.3953H13.3879H13.3806H13.3734H13.3662H13.359H13.3519H13.3449H13.3379H13.331H13.3241H13.3173H13.3106H13.3039H13.2972H13.2906H13.2841H13.2776H13.2711H13.2647H13.2584H13.2521H13.2458H13.2397H13.2335H13.2274H13.2214H13.2154H13.2094H13.2035H13.1977H13.1919H13.1861H13.1804H13.1748H13.1691H13.1636H13.1581H13.1526H13.1471H13.1418H13.1364H13.1311H13.1259H13.1206H13.1155H13.1103H13.1053H13.1002H13.0952H13.0903H13.0853H13.0805H13.0756H13.0708H13.0661H13.0614H13.0567H13.052H13.0474H13.0429H13.0384H13.0339H13.0294H13.025H13.0206H13.0163H13.012H13.0077H13.0035H12.9993H12.9951H12.991H12.9869H12.9828H12.9788H12.9748H12.9708H12.9669H12.963H12.9592H12.9553H12.9515H12.9477H12.944H12.9403H12.9366H12.933H12.9293H12.9257H12.9222H12.9186H12.9151H12.9116H12.9082H12.9048H12.9014H12.898H12.8946H12.8913H12.888H12.8848H12.8815H12.8783H12.8751H12.8719H12.8688H12.8656H12.8625H12.8594H12.8564H12.8533H12.8503H12.8473H12.8443H12.8414H12.8385H12.8355H12.8326H12.8298H12.8269H12.8241H12.8212H12.8184H12.8157H12.8129H12.8101H12.8074H12.8047H12.802H12.7993H12.7966H12.794H12.7913H12.7887H12.7861H12.7835H12.7809H12.7783H12.7758H12.7732H12.7707H12.7682H12.7657H12.7632H12.7607H12.7582H12.7557H12.7533H12.7508H12.7484H12.7459H12.7435H12.7411H12.7387H12.7363H12.7339H12.7315H12.7291H12.7268H12.7244H12.7221H12.7197H12.7174H12.715H12.7127H12.7103H12.708H12.7057H12.7033H12.701H12.6987H12.6964H12.6941H12.6918H12.6894H12.6871H12.6848H12.6825H12.6802H12.6779H12.6756H12.6733H12.6709H12.6686H12.6663H12.664H12.6617H12.6593H12.657H12.6547H12.6523H12.65H12.6477H12.6453H12.6429H12.6406H12.6382H12.6358H12.6335H12.6311H12.6287H12.6263H12.6239H12.6215H12.619H12.6166H12.6141H12.6117H12.6092H12.6068H12.6043H12.6018H12.5993H12.5968H12.5942H12.5917H12.5891H12.5866H12.584H12.5814H12.5788H12.5762H12.5735H12.5709H12.5682H12.5656H12.5629H12.5602H12.5574H12.5547H12.5519H12.5492H12.5464H12.5436H12.5407H12.5379H12.535H12.5321H12.5292H12.5263H12.5233H12.5204H12.5174H12.5144H12.5114H12.5083H12.5052H12.5022H12.499H12.4959H12.4927H12.4895H12.4863H12.4831H12.4798H12.4766H12.4733H12.4699H12.4666H12.4632H12.4598H12.4563H12.4529H12.4494H12.4458H12.4423H12.4387H12.4351H12.4315H12.4278H12.4241H12.4204H12.4166H12.4128H12.409H12.4052H12.4013H12.3974H12.3934H12.3895H12.3855H12.3814H12.3773H12.3732H12.3691H12.3649H12.3607H12.3564H12.3522H12.3478H12.3435H12.3391H12.3347H12.3302H12.3257H12.3212H12.3166H12.312H12.3073H12.3026H12.2979H12.2931H12.2883H12.2834H12.2785H12.2736H12.2686H12.2636H12.2585H12.2534H12.2483H12.2431H12.2379H12.2326H12.2273H12.2219H12.2165H12.211H12.2055H12.2H12.1944H12.1888H12.1831H12.1774H12.1716H12.1658H12.1599H12.154H12.148H12.142H12.1359H12.1298H12.1237H12.1174H12.1112H12.1049H12.0985H12.0921H12.0856H12.0791H12.0725H12.0659H12.0592H12.0525H12.0457H12.0389H12.032H12.025H12.018H12.011H12.0038H11.9967H11.9895H11.9822H11.9748H11.9674H11.96H11.9525H11.9449H11.9373H11.9296H11.9219H11.9141H11.9062H11.8983H11.8903H11.8822H11.8741H11.866H11.8578H11.8495H11.8411H11.8327H11.8242H11.8157H11.8071H11.7984H11.7897H11.7809H11.772H11.7631H11.7541H11.7451H11.7359H11.7267H11.7175H11.7082H11.6988H11.6893H11.6798H11.6702H11.6605H11.6508H11.641H11.6311H11.6212H11.6112H11.6011H11.591H11.5807H11.5704H11.5601H11.5496H11.5391H11.5285H11.5179H11.5072H11.4964H11.4855H11.4745H11.4635H11.4524H11.4412H11.43H11.4186H11.4072H11.3957H11.3842H11.3725H11.3608H11.349H11.3372H11.3252H11.3132H11.3011H11.2889H11.2766H11.2643H11.2519H11.2393H11.2268H11.2141H11.2013H11.1885H11.1756H11.1626H11.1495H11.1363H11.1231H11.1097H11.0963H11.0828H11.0692H11.0556H11.0418H11.028H11.014H11C10.4477 18 10 17.5523 10 17C10 16.4477 10.4477 16 11 16H11.014H11.028H11.0418H11.0556H11.0692H11.0828H11.0963H11.1097H11.1231H11.1363H11.1495H11.1626H11.1756H11.1885H11.2013H11.2141H11.2268H11.2393H11.2519H11.2643H11.2766H11.2889H11.3011H11.3132H11.3252H11.3372H11.349H11.3608H11.3725H11.3842H11.3957H11.4072H11.4186H11.43H11.4412H11.4524H11.4635H11.4745H11.4855H11.4964H11.5072H11.5179H11.5285H11.5391H11.5496H11.5601H11.5704H11.5807H11.591H11.6011H11.6112H11.6212H11.6311H11.641H11.6508H11.6605H11.6702H11.6798H11.6893H11.6988H11.7082H11.7175H11.7267H11.7359H11.7451H11.7541H11.7631H11.772H11.7809H11.7897H11.7984H11.8071H11.8157H11.8242H11.8327H11.8411H11.8495H11.8578H11.866H11.8741H11.8822H11.8903H11.8983H11.9062H11.9141H11.9219H11.9296H11.9373H11.9449H11.9525H11.96H11.9674H11.9748H11.9822H11.9895H11.9967H12.0038H12.011H12.018H12.025H12.032H12.0389H12.0457H12.0525H12.0592H12.0659H12.0725H12.0791H12.0856H12.0921H12.0985H12.1049H12.1112H12.1174H12.1237H12.1298H12.1359H12.142H12.148H12.154H12.1599H12.1658H12.1716H12.1774H12.1831H12.1888H12.1944H12.2H12.2055H12.211H12.2165H12.2219H12.2273H12.2326H12.2379H12.2431H12.2483H12.2534H12.2585H12.2636H12.2686H12.2736H12.2785H12.2834H12.2883H12.2931H12.2979H12.3026H12.3073H12.312H12.3166H12.3212H12.3257H12.3302H12.3347H12.3391H12.3435H12.3478H12.3522H12.3564H12.3607H12.3649H12.3691H12.3732H12.3773H12.3814H12.3855H12.3895H12.3934H12.3974H12.4013H12.4052H12.409H12.4128H12.4166H12.4204H12.4241H12.4278H12.4315H12.4351H12.4387H12.4423H12.4458H12.4494H12.4529H12.4563H12.4598H12.4632H12.4666H12.4699H12.4733H12.4766H12.4798H12.4831H12.4863H12.4895H12.4927H12.4959H12.499H12.5022H12.5052H12.5083H12.5114H12.5144H12.5174H12.5204H12.5233H12.5263H12.5292H12.5321H12.535H12.5379H12.5407H12.5436H12.5464H12.5492H12.5519H12.5547H12.5574H12.5602H12.5629H12.5656H12.5682H12.5709H12.5735H12.5762H12.5788H12.5814H12.584H12.5866H12.5891H12.5917H12.5942H12.5968H12.5993H12.6018H12.6043H12.6068H12.6092H12.6117H12.6141H12.6166H12.619H12.6215H12.6239H12.6263H12.6287H12.6311H12.6335H12.6358H12.6382H12.6406H12.6429H12.6453H12.6477H12.65H12.6523H12.6547H12.657H12.6593H12.6617H12.664H12.6663H12.6686H12.6709H12.6733H12.6756H12.6779H12.6802H12.6825H12.6848H12.6871H12.6894H12.6918H12.6941H12.6964H12.6987H12.701H12.7033H12.7057H12.708H12.7103H12.7127H12.715H12.7174H12.7197H12.7221H12.7244H12.7268H12.7291H12.7315H12.7339H12.7363H12.7387H12.7411H12.7435H12.7459H12.7484H12.7508H12.7533H12.7557H12.7582H12.7607H12.7632H12.7657H12.7682H12.7707H12.7732H12.7758H12.7783H12.7809H12.7835H12.7861H12.7887H12.7913H12.794H12.7966H12.7993H12.802H12.8047H12.8074H12.8101H12.8129H12.8157H12.8184H12.8212H12.8241H12.8269H12.8298H12.8326H12.8355H12.8385H12.8414H12.8443H12.8473H12.8503H12.8533H12.8564H12.8594H12.8625H12.8656H12.8688H12.8719H12.8751H12.8783H12.8815H12.8848H12.888H12.8913H12.8946H12.898H12.9014H12.9048H12.9082H12.9116H12.9151H12.9186H12.9222H12.9257H12.9293H12.933H12.9366H12.9403H12.944H12.9477H12.9515H12.9553H12.9592H12.963H12.9669H12.9708H12.9748H12.9788H12.9828H12.9869H12.991H12.9951H12.9993H13.0035H13.0077H13.012H13.0163H13.0206H13.025H13.0294H13.0339H13.0384H13.0429H13.0474H13.052H13.0567H13.0614H13.0661H13.0708H13.0756H13.0805H13.0853H13.0903H13.0952H13.1002H13.1053H13.1103H13.1155H13.1206H13.1259H13.1311H13.1364H13.1418H13.1471H13.1526H13.1581H13.1636H13.1691H13.1748H13.1804H13.1861H13.1919H13.1977H13.2035H13.2094H13.2154H13.2214H13.2274H13.2335H13.2397H13.2458H13.2521H13.2584H13.2647H13.2711H13.2776H13.2841H13.2906H13.2972H13.3039H13.3106H13.3173H13.3241H13.331H13.3379H13.3449H13.3519H13.359H13.3662H13.3734H13.3806H13.3879H13.3953H13.4027H13.4102H13.4178H13.4254H13.433H13.4407H13.4485H13.4564H13.4642H13.4722H13.4802H13.4883H13.4964H13.5046H13.5129H13.5212H13.5296H13.538H13.5466H13.5551H13.5638H13.5725H13.5812H13.5901H13.599H13.6079H13.617H13.626H13.6352H13.6444H13.6537H13.6631H13.6725H13.682H13.6916H13.7012H13.7109H13.7207H13.7305H13.7404H13.7504H13.7604H13.7706H13.7808H13.791H13.8014H13.8118H13.8222H13.8328H13.8434H13.8541H13.8649H13.8757H13.8867H13.8976H13.9087H13.9199H13.9311H13.9424H13.9537H13.9652H13.9767H13.9883H14C14.1812 16 14.3591 16.0493 14.5145 16.1425L18 18.2338V17C18 16.4477 18.4477 16 19 16C19.34 16 19.8722 15.8898 20.2907 15.5885C20.6582 15.3239 21 14.8741 21 14V11C21 10.3472 20.6639 9.37554 19.7158 9.09447Z" fill="#70306B"/>
</svg>
