<svg width="124" height="100" viewBox="0 0 124 100" fill="none" xmlns="http://www.w3.org/2000/svg">
<path d="M38.7028 100C85.1441 100 110.546 61.5237 110.546 28.1572C110.546 27.0644 110.546 25.9764 110.472 24.8934C115.413 21.3191 119.679 16.8933 123.069 11.8235C118.461 13.8655 113.572 15.2046 108.567 15.7962C113.838 12.6406 117.783 7.6774 119.667 1.83028C114.711 4.77141 109.288 6.84418 103.634 7.95912C99.827 3.91106 94.792 1.23053 89.3081 0.332352C83.8242 -0.565831 78.1972 0.368402 73.2977 2.99048C68.3983 5.61256 64.4996 9.77631 62.205 14.8374C59.9103 19.8985 59.3477 25.5747 60.6041 30.9878C50.5654 30.4845 40.7447 27.8758 31.7796 23.3309C22.8145 18.786 14.9053 12.4066 8.56561 4.60672C5.33673 10.1653 4.34779 16.7456 5.80014 23.0077C7.25249 29.2698 11.0369 34.743 16.383 38.3129C12.3647 38.1938 8.43407 37.1098 4.92276 35.1525C4.92276 35.2558 4.92276 35.3641 4.92276 35.4724C4.92436 41.3021 6.94238 46.9517 10.6346 51.463C14.3267 55.9744 19.4657 59.0697 25.1799 60.2241C21.4626 61.2379 17.5623 61.3861 13.7788 60.6573C15.3923 65.6744 18.5335 70.0618 22.7632 73.2058C26.9929 76.3498 32.0994 78.0932 37.3687 78.1922C28.4276 85.2191 17.3826 89.0337 6.01069 89.0222C4.00173 89.0184 1.99472 88.8967 0 88.658C11.547 96.0681 24.9826 99.9986 38.7028 99.9803" fill="#1DA1F2"/>
</svg>
