<svg width="20" height="21" viewBox="0 0 20 21" fill="none" xmlns="http://www.w3.org/2000/svg">
<path fill-rule="evenodd" clip-rule="evenodd" d="M3 10.3905C3 10.1916 3.07902 10.0008 3.21967 9.86018C3.36032 9.71953 3.55109 9.64051 3.75 9.64051H14.388L10.23 5.68051C10.1557 5.61307 10.0956 5.5314 10.0534 5.44033C10.0112 5.34926 9.98771 5.25064 9.98432 5.15033C9.98093 5.05001 9.99771 4.95003 10.0337 4.85632C10.0696 4.76261 10.124 4.67707 10.1937 4.60477C10.2633 4.53247 10.3467 4.47488 10.439 4.43541C10.5313 4.39594 10.6306 4.3754 10.7309 4.37501C10.8313 4.37461 10.9307 4.39436 11.0233 4.4331C11.1159 4.47183 11.1998 4.52876 11.27 4.60051L16.77 9.85051C16.8426 9.92047 16.9003 10.0044 16.9398 10.0971C16.9792 10.1899 16.9995 10.2897 16.9995 10.3905C16.9995 10.4913 16.9792 10.5911 16.9398 10.6839C16.9003 10.7767 16.8426 10.8605 16.77 10.9305L11.27 16.1805C11.1998 16.2523 11.1159 16.3092 11.0233 16.3479C10.9307 16.3867 10.8313 16.4064 10.7309 16.406C10.6306 16.4056 10.5313 16.3851 10.439 16.3456C10.3467 16.3061 10.2633 16.2486 10.1937 16.1763C10.124 16.104 10.0696 16.0184 10.0337 15.9247C9.99771 15.831 9.98093 15.731 9.98432 15.6307C9.98771 15.5304 10.0112 15.4318 10.0534 15.3407C10.0956 15.2496 10.1557 15.1679 10.23 15.1005L14.388 11.1405H3.75C3.55109 11.1405 3.36032 11.0615 3.21967 10.9208C3.07902 10.7802 3 10.5894 3 10.3905Z" fill="#63657E"/>
</svg>
