<svg width="26" height="27" viewBox="0 0 26 27" fill="none" xmlns="http://www.w3.org/2000/svg">
<path fill-rule="evenodd" clip-rule="evenodd" d="M17.3332 2.22656H8.6665C5.07665 2.22656 2.1665 5.13671 2.1665 8.72656V17.3932C2.1665 20.9831 5.07665 23.8932 8.6665 23.8932H17.3332C20.923 23.8932 23.8332 20.9831 23.8332 17.3932V8.72656C23.8332 5.13671 20.923 2.22656 17.3332 2.22656ZM4.33317 8.72656C4.33317 6.33333 6.27327 4.39323 8.6665 4.39323H17.3332C19.7264 4.39323 21.6665 6.33333 21.6665 8.72656V17.3932C21.6665 19.7865 19.7264 21.7266 17.3332 21.7266H8.6665C6.27327 21.7266 4.33317 19.7865 4.33317 17.3932V8.72656ZM13.9389 9.06221C13.5263 8.62895 12.8406 8.61223 12.4073 9.02486C11.9741 9.43748 11.9573 10.1232 12.37 10.5565L13.7219 11.976H9.74968C9.15137 11.976 8.66635 12.461 8.66635 13.0593C8.66635 13.6576 9.15137 14.1427 9.74968 14.1427H13.7219L12.37 15.5622C11.9573 15.9955 11.9741 16.6812 12.4073 17.0938C12.8406 17.5064 13.5263 17.4897 13.9389 17.0565L17.0342 13.8065C17.4326 13.3881 17.4326 12.7306 17.0342 12.3122L13.9389 9.06221Z" fill="#63657E"/>
</svg>
