<svg width="24" height="24" viewBox="0 0 24 24" fill="none" xmlns="http://www.w3.org/2000/svg">
<path fill-rule="evenodd" clip-rule="evenodd" d="M14.1917 2.88056C13.0059 1.61184 10.9939 1.61184 9.80817 2.88056L9.01972 3.72416C8.82258 3.93509 8.5439 4.05052 8.25536 4.04077L7.10132 4.00177C5.36574 3.94311 3.94305 5.3658 4.00171 7.10138L4.04071 8.25542C4.05046 8.54396 3.93502 8.82264 3.7241 9.01978L2.88049 9.80823C1.61177 10.994 1.61178 13.006 2.88049 14.1917L3.7241 14.9802C3.93502 15.1773 4.05046 15.456 4.04071 15.7446L4.00171 16.8986C3.94305 18.6342 5.36574 20.0569 7.10132 19.9982L8.25536 19.9592C8.5439 19.9495 8.82258 20.0649 9.01972 20.2758L9.80817 21.1194C10.9939 22.3881 13.0059 22.3881 14.1917 21.1194L14.9801 20.2758C15.1773 20.0649 15.4559 19.9495 15.7445 19.9592L16.8985 19.9982C18.6341 20.0569 20.0568 18.6342 19.9981 16.8986L19.9591 15.7446C19.9494 15.456 20.0648 15.1773 20.2758 14.9802L21.1194 14.1917C22.3881 13.006 22.3881 10.994 21.1194 9.80823L20.2758 9.01978C20.0648 8.82264 19.9494 8.54396 19.9591 8.25542L19.9981 7.10138C20.0568 5.3658 18.6341 3.94311 16.8985 4.00177L15.7445 4.04077C15.4559 4.05052 15.1773 3.93509 14.9801 3.72416L14.1917 2.88056ZM11.2693 4.2462C11.6646 3.82329 12.3353 3.82329 12.7305 4.2462L13.519 5.0898C14.1104 5.72258 14.9464 6.06888 15.812 6.03963L16.9661 6.00063C17.5446 5.98107 18.0188 6.4553 17.9993 7.03383L17.9603 8.18787C17.931 9.0535 18.2773 9.88954 18.9101 10.481L19.7537 11.2694C20.1766 11.6647 20.1766 12.3353 19.7537 12.7306L18.9101 13.519C18.2773 14.1104 17.931 14.9465 17.9603 15.8121L17.9993 16.9661C18.0188 17.5447 17.5446 18.0189 16.9661 17.9993L15.812 17.9603C14.9464 17.9311 14.1104 18.2774 13.519 18.9102L12.7305 19.7538C12.3353 20.1767 11.6646 20.1767 11.2693 19.7538L10.4809 18.9102C9.88948 18.2774 9.05344 17.9311 8.1878 17.9603L7.03377 17.9993C6.45524 18.0189 5.98101 17.5447 6.00057 16.9661L6.03957 15.8121C6.06882 14.9465 5.72252 14.1104 5.08974 13.519L4.24613 12.7306C3.82323 12.3353 3.82323 11.6647 4.24613 11.2694L5.08974 10.481C5.72252 9.88954 6.06882 9.0535 6.03957 8.18787L6.00057 7.03383C5.98101 6.4553 6.45524 5.98107 7.03377 6.00063L8.1878 6.03963C9.05344 6.06888 9.88948 5.72258 10.4809 5.0898L11.2693 4.2462ZM15.707 10.7071C16.0976 10.3166 16.0976 9.6834 15.707 9.29288C15.3165 8.90236 14.6833 8.90236 14.2928 9.29288L10.9999 12.5858L9.70703 11.2929C9.31651 10.9024 8.68334 10.9024 8.29282 11.2929C7.9023 11.6834 7.9023 12.3166 8.29282 12.7071L10.2928 14.7071C10.6833 15.0976 11.3165 15.0976 11.707 14.7071L15.707 10.7071Z" fill="#70306B"/>
</svg>
