<svg width="100" height="96" viewBox="0 0 100 96" fill="none" xmlns="http://www.w3.org/2000/svg">
<path d="M24.1082 11.357C24.1082 17.539 19.4582 22.4946 11.9822 22.4946H11.8429C4.64552 22.499 0 17.5345 0 11.357C0 5.02667 4.79378 0.205936 12.1215 0.205936C19.4582 0.201443 23.9734 5.02667 24.1082 11.357ZM1.25797 95.7895H22.6975V31.3049H1.25797V95.7895ZM75.3167 29.7953C63.9456 29.7953 58.8552 36.0402 55.9934 40.4431V40.6498H55.8541C55.908 40.5869 55.9574 40.515 55.9934 40.4431V31.3094H34.5584C34.8369 37.3521 34.5584 95.794 34.5584 95.794H55.9934V59.78C55.9934 57.8391 56.1236 55.9387 56.6987 54.5504C58.2532 50.7136 61.7845 46.7016 67.688 46.7016C75.456 46.7016 78.5605 52.6275 78.5605 61.2896V95.794H99.9955V58.8231C100 39.001 89.415 29.7953 75.3167 29.7953Z" fill="#007AAA"/>
</svg>
