<svg width="20" height="17" viewBox="0 0 20 17" fill="none" xmlns="http://www.w3.org/2000/svg">
<path fill-rule="evenodd" clip-rule="evenodd" d="M12.7071 1.1436C12.3166 0.753077 11.6834 0.753077 11.2929 1.1436C10.9024 1.53413 10.9024 2.16729 11.2929 2.55781L16.5858 7.85071H1C0.447715 7.85071 0 8.29842 0 8.85071C0 9.40299 0.447715 9.85071 1 9.85071H16.5858L11.2929 15.1436C10.9024 15.5341 10.9024 16.1673 11.2929 16.5578C11.6834 16.9483 12.3166 16.9483 12.7071 16.5578L19.7071 9.55781C19.8902 9.37476 19.9874 9.13838 19.9989 8.89868C19.9996 8.8827 20 8.8667 20 8.85071M19.9241 8.46792C19.8753 8.34998 19.803 8.23948 19.7071 8.1436L12.7071 1.1436M19.9241 8.46792C19.9719 8.58315 19.9988 8.70925 20 8.84148Z" fill="#596AD1"/>
</svg>
