<svg width="20" height="21" viewBox="0 0 20 21" fill="none" xmlns="http://www.w3.org/2000/svg">
<path fill-rule="evenodd" clip-rule="evenodd" d="M5.21983 15.28C5.36045 15.4205 5.55108 15.4993 5.74983 15.4993C5.94858 15.4993 6.1392 15.4205 6.27983 15.28L13.4998 8.06V13.75C13.4998 13.9489 13.5788 14.1397 13.7195 14.2803C13.8602 14.421 14.0509 14.5 14.2498 14.5C14.4487 14.5 14.6395 14.421 14.7802 14.2803C14.9208 14.1397 14.9998 13.9489 14.9998 13.75V6.25C14.9998 6.05109 14.9208 5.86032 14.7802 5.71967C14.6395 5.57902 14.4487 5.5 14.2498 5.5H6.74983C6.55092 5.5 6.36015 5.57902 6.2195 5.71967C6.07885 5.86032 5.99983 6.05109 5.99983 6.25C5.99983 6.44891 6.07885 6.63968 6.2195 6.78033C6.36015 6.92098 6.55092 7 6.74983 7H12.4398L5.21983 14.22C5.07938 14.3606 5.00049 14.5512 5.00049 14.75C5.00049 14.9488 5.07938 15.1394 5.21983 15.28Z" fill="black"/>
</svg>
