<svg width="64" height="20" viewBox="0 0 64 20" fill="none" xmlns="http://www.w3.org/2000/svg">
<path fill-rule="evenodd" clip-rule="evenodd" d="M5.21983 14.78C5.36045 14.9205 5.55108 14.9993 5.74983 14.9993C5.94858 14.9993 6.1392 14.9205 6.27983 14.78L13.4998 7.56V13.25C13.4998 13.4489 13.5788 13.6397 13.7195 13.7803C13.8602 13.921 14.0509 14 14.2498 14C14.4487 14 14.6395 13.921 14.7802 13.7803C14.9208 13.6397 14.9998 13.4489 14.9998 13.25V5.75C14.9998 5.55109 14.9208 5.36032 14.7802 5.21967C14.6395 5.07902 14.4487 5 14.2498 5H6.74983C6.55092 5 6.36015 5.07902 6.2195 5.21967C6.07885 5.36032 5.99983 5.55109 5.99983 5.75C5.99983 5.94891 6.07885 6.13968 6.2195 6.28033C6.36015 6.42098 6.55092 6.5 6.74983 6.5H12.4398L5.21983 13.72C5.07938 13.8606 5.00049 14.0512 5.00049 14.25C5.00049 14.4488 5.07938 14.6394 5.21983 14.78Z" fill="black"/>
<path fill-rule="evenodd" clip-rule="evenodd" d="M49.2198 14.78C49.3605 14.9205 49.5511 14.9993 49.7498 14.9993C49.9486 14.9993 50.1392 14.9205 50.2798 14.78L57.4998 7.56V13.25C57.4998 13.4489 57.5788 13.6397 57.7195 13.7803C57.8602 13.921 58.0509 14 58.2498 14C58.4487 14 58.6395 13.921 58.7802 13.7803C58.9208 13.6397 58.9998 13.4489 58.9998 13.25V5.75C58.9998 5.55109 58.9208 5.36032 58.7802 5.21967C58.6395 5.07902 58.4487 5 58.2498 5H50.7498C50.5509 5 50.3602 5.07902 50.2195 5.21967C50.0788 5.36032 49.9998 5.55109 49.9998 5.75C49.9998 5.94891 50.0788 6.13968 50.2195 6.28033C50.3602 6.42098 50.5509 6.5 50.7498 6.5H56.4398L49.2198 13.72C49.0794 13.8606 49.0005 14.0512 49.0005 14.25C49.0005 14.4488 49.0794 14.6394 49.2198 14.78Z" fill="black"/>
</svg>
