<svg width="20" height="21" viewBox="0 0 20 21" fill="none" xmlns="http://www.w3.org/2000/svg">
<path fill-rule="evenodd" clip-rule="evenodd" d="M3 10.4999C3 10.301 3.07902 10.1102 3.21967 9.96956C3.36032 9.8289 3.55109 9.74989 3.75 9.74989H14.388L10.23 5.78989C10.1557 5.72245 10.0956 5.64077 10.0534 5.5497C10.0112 5.45863 9.98771 5.36002 9.98432 5.2597C9.98093 5.15939 9.99771 5.05941 10.0337 4.9657C10.0696 4.87199 10.124 4.78644 10.1937 4.71414C10.2633 4.64184 10.3467 4.58425 10.439 4.54479C10.5313 4.50532 10.6306 4.48478 10.7309 4.48438C10.8313 4.48398 10.9307 4.50374 11.0233 4.54247C11.1159 4.58121 11.1998 4.63814 11.27 4.70989L16.77 9.95989C16.8426 10.0298 16.9003 10.1137 16.9398 10.2065C16.9792 10.2993 16.9995 10.3991 16.9995 10.4999C16.9995 10.6007 16.9792 10.7005 16.9398 10.7933C16.9003 10.886 16.8426 10.9699 16.77 11.0399L11.27 16.2899C11.1998 16.3616 11.1159 16.4186 11.0233 16.4573C10.9307 16.496 10.8313 16.5158 10.7309 16.5154C10.6306 16.515 10.5313 16.4945 10.439 16.455C10.3467 16.4155 10.2633 16.3579 10.1937 16.2856C10.124 16.2133 10.0696 16.1278 10.0337 16.0341C9.99771 15.9404 9.98093 15.8404 9.98432 15.7401C9.98771 15.6398 10.0112 15.5411 10.0534 15.4501C10.0956 15.359 10.1557 15.2773 10.23 15.2099L14.388 11.2499H3.75C3.55109 11.2499 3.36032 11.1709 3.21967 11.0302C3.07902 10.8896 3 10.6988 3 10.4999Z" fill="black"/>
</svg>
