<svg width="148" height="70" viewBox="0 0 148 70" fill="none" xmlns="http://www.w3.org/2000/svg">
<path d="M14.28 30H9.84V5.2H0.6V1.4H23.52V5.2H14.28V30ZM28.5032 5.962C27.0084 5.962 26.16 4.9116 26.16 3.6592C26.16 2.4068 27.0084 1.3564 28.5032 1.3564C29.9576 1.3564 30.806 2.4068 30.806 3.6592C30.806 4.9116 29.9576 5.962 28.5032 5.962ZM30.4828 30H26.5236V9.396H30.4828V30ZM57.1051 9C61.2251 9 63.3051 11.48 63.3051 15.84V30H59.3851V16.92C59.3851 14.2 58.8251 12.36 55.8251 12.36C52.9051 12.36 51.0651 14.4 51.0651 17.48V30H47.1451V16.92C47.1451 14.2 46.5851 12.36 43.5851 12.36C40.6651 12.36 38.8251 14.4 38.8251 17.48V30H34.9051V9.6H38.8251V12.16H38.9051C39.9851 10.6 41.8651 9 44.9451 9C47.7851 9 49.5451 10.28 50.3451 12.56H50.4251C51.9051 10.6 53.9851 9 57.1051 9ZM79.9079 30.56C71.6679 30.56 67.0279 24.32 67.0279 15.68C67.0279 7.08 72.2679 0.839999 80.4279 0.839999C87.8279 0.839999 91.7479 4.8 92.6679 10.24H88.0679C87.3079 6.64 84.6279 4.64 80.3879 4.64C74.0679 4.64 71.6279 10.32 71.6279 15.68C71.6279 21.08 73.4679 26.76 80.1479 26.76C84.8679 26.76 88.6279 23.48 88.6679 18.72H80.2279V15.04H93.1479V30H90.1079L89.0279 26.04H88.9479C86.9479 28.96 84.2679 30.56 79.9079 30.56ZM102.802 30.56C98.722 30.56 96.122 28.2 96.122 24.72C96.122 20.16 99.562 18.8 104.642 17.84C107.842 17.24 109.802 16.84 109.802 14.84C109.802 13.36 108.922 12.12 105.922 12.12C102.362 12.12 101.282 13.24 101.082 15.96H97.082C97.282 12.04 99.842 8.96 106.082 8.96C110.282 8.96 113.642 10.72 113.642 16V25.36C113.642 26.84 113.842 27.6 114.602 27.6C114.722 27.6 114.842 27.6 115.082 27.56V29.96C114.402 30.12 113.722 30.2 113.082 30.2C111.122 30.2 110.082 29.44 109.842 27.12H109.762C108.442 29.24 106.122 30.56 102.802 30.56ZM103.682 27.4C107.202 27.4 109.802 25.6 109.802 22.04V19.12C109.162 19.72 107.402 20.16 105.322 20.6C101.722 21.32 100.202 22.32 100.202 24.44C100.202 26.36 101.242 27.4 103.682 27.4ZM122.332 30H118.412V1.4H122.332V30ZM145.452 19.36C145.452 19.92 145.452 20.52 145.412 20.84H129.732C129.812 24.24 131.812 27.4 135.852 27.4C139.452 27.4 140.852 25.08 141.212 23.72H145.212C144.132 27.64 141.132 30.6 135.772 30.6C129.292 30.6 125.692 26 125.692 19.76C125.692 13.36 129.532 8.96 135.772 8.96C141.972 8.96 145.452 13.04 145.452 19.36ZM129.732 17.76H141.372C141.372 14.56 139.132 12.16 135.652 12.16C132.372 12.16 129.972 14.4 129.732 17.76Z" fill="#1B202B"/>
<path d="M47.15 44.69V34.01H51.07V62.61H47.15V60.21H47.07C45.95 61.65 43.99 63.17 40.79 63.17C35.59 63.17 31.63 59.13 31.63 52.41C31.63 45.69 35.59 41.61 40.79 41.61C43.99 41.61 45.95 43.09 47.07 44.69H47.15ZM41.43 59.93C44.95 59.93 47.11 57.01 47.11 52.41C47.11 47.77 44.95 44.89 41.43 44.89C37.59 44.89 35.71 48.41 35.71 52.41C35.71 56.41 37.59 59.93 41.43 59.93ZM74.0025 51.97C74.0025 52.53 74.0025 53.13 73.9625 53.45H58.2825C58.3625 56.85 60.3625 60.01 64.4025 60.01C68.0025 60.01 69.4025 57.69 69.7625 56.33H73.7625C72.6825 60.25 69.6825 63.21 64.3225 63.21C57.8425 63.21 54.2425 58.61 54.2425 52.37C54.2425 45.97 58.0825 41.57 64.3225 41.57C70.5225 41.57 74.0025 45.65 74.0025 51.97ZM58.2825 50.37H69.9225C69.9225 47.17 67.6825 44.77 64.2025 44.77C60.9225 44.77 58.5225 47.01 58.2825 50.37ZM85.3538 63.17C79.1538 63.17 76.0738 59.97 75.9538 55.81H79.9138C80.0738 58.17 81.5138 60.01 85.3138 60.01C88.7538 60.01 89.6738 58.49 89.6738 57.01C89.6738 54.45 86.9538 54.17 84.3138 53.61C80.7538 52.77 76.6738 51.73 76.6738 47.49C76.6738 43.97 79.5138 41.61 84.4338 41.61C90.0338 41.61 92.7138 44.61 92.9938 48.13H89.0338C88.7538 46.57 87.9138 44.77 84.5138 44.77C81.8738 44.77 80.7538 45.81 80.7538 47.33C80.7538 49.45 83.0338 49.65 85.9138 50.29C89.6738 51.17 93.7538 52.25 93.7538 56.81C93.7538 60.77 90.7138 63.17 85.3538 63.17ZM98.805 38.81C97.325 38.81 96.485 37.77 96.485 36.53C96.485 35.29 97.325 34.25 98.805 34.25C100.245 34.25 101.085 35.29 101.085 36.53C101.085 37.77 100.245 38.81 98.805 38.81ZM100.765 62.61H96.845V42.21H100.765V62.61ZM119.565 44.61V42.21H123.485V61.01C123.485 67.17 119.765 69.93 113.925 69.93C108.085 69.93 105.165 67.13 104.765 63.45H108.845C109.245 65.29 110.605 66.73 113.925 66.73C117.645 66.73 119.565 65.09 119.565 61.25V58.49H119.485C118.365 60.13 116.485 61.57 113.205 61.57C108.125 61.57 104.205 58.13 104.205 51.61C104.205 45.05 108.125 41.61 113.205 41.61C116.485 41.61 118.365 43.17 119.485 44.61H119.565ZM113.925 58.33C117.445 58.33 119.525 56.05 119.525 51.61C119.525 47.13 117.445 44.89 113.925 44.89C110.085 44.89 108.285 47.77 108.285 51.61C108.285 55.45 110.085 58.33 113.925 58.33ZM138.581 41.61C142.341 41.61 145.381 43.77 145.381 48.45V62.61H141.461V49.53C141.461 46.81 140.261 44.97 137.301 44.97C133.941 44.97 131.781 47.01 131.781 50.09V62.61H127.861V42.21H131.781V44.77H131.861C132.941 43.21 135.061 41.61 138.581 41.61Z" fill="#1B202B"/>
</svg>
